<?xml version="1.0" encoding="utf-8" standalone="no"?>
<!DOCTYPE svg PUBLIC "-//W3C//DTD SVG 1.1//EN"
  "http://www.w3.org/Graphics/SVG/1.1/DTD/svg11.dtd">
<svg xmlns:xlink="http://www.w3.org/1999/xlink" width="137.16pt" height="103.104pt" viewBox="0 0 137.16 103.104" xmlns="http://www.w3.org/2000/svg" version="1.1">
 <metadata>
  <rdf:RDF xmlns:dc="http://purl.org/dc/elements/1.1/" xmlns:cc="http://creativecommons.org/ns#" xmlns:rdf="http://www.w3.org/1999/02/22-rdf-syntax-ns#">
   <cc:Work>
    <dc:type rdf:resource="http://purl.org/dc/dcmitype/StillImage"/>
    <dc:date>2026-05-27T15:48:58.987623</dc:date>
    <dc:format>image/svg+xml</dc:format>
    <dc:creator>
     <cc:Agent>
      <dc:title>Matplotlib v3.10.0, https://matplotlib.org/</dc:title>
     </cc:Agent>
    </dc:creator>
   </cc:Work>
  </rdf:RDF>
 </metadata>
 <defs>
  <style type="text/css">*{stroke-linejoin: round; stroke-linecap: butt}</style>
 </defs>
 <g id="figure_1">
  <g id="patch_1">
   <path d="M 0 103.104 
L 137.16 103.104 
L 137.16 0 
L 0 0 
z
" style="fill: #ffffff"/>
  </g>
  <g id="axes_1">
   <g id="patch_2">
    <path d="M 68.58 35.7516 
C 79.32359 35.7516 89.628596 34.962996 97.225461 33.55947 
C 104.822327 32.155944 109.0908 30.252086 109.0908 28.2672 
C 109.0908 26.282314 104.822327 24.378456 97.225461 22.97493 
C 89.628596 21.571404 79.32359 20.7828 68.58 20.7828 
C 57.83641 20.7828 47.531404 21.571404 39.934539 22.97493 
C 32.337673 24.378456 28.0692 26.282314 28.0692 28.2672 
C 28.0692 30.252086 32.337673 32.155944 39.934539 33.55947 
C 47.531404 34.962996 57.83641 35.7516 68.58 35.7516 
z
" clip-path="url(#p790e46c93a)" style="fill: #ffffff; stroke: #000000; stroke-width: 2.2; stroke-linejoin: miter"/>
   </g>
   <g id="patch_3">
    <path d="M 28.0692 43.7904 
C 28.0692 45.774625 32.340204 47.679611 39.934539 49.08267 
C 47.528874 50.485729 57.839988 51.2748 68.58 51.2748 
C 79.320012 51.2748 89.631126 50.485729 97.225461 49.08267 
C 104.819796 47.679611 109.0908 45.774625 109.0908 43.7904 
" clip-path="url(#p790e46c93a)" style="fill: none; stroke: #000000; stroke-width: 2.2; stroke-linejoin: miter"/>
   </g>
   <g id="patch_4">
    <path d="M 28.0692 59.3136 
C 28.0692 61.297825 32.340204 63.202811 39.934539 64.60587 
C 47.528874 66.008929 57.839988 66.798 68.58 66.798 
C 79.320012 66.798 89.631126 66.008929 97.225461 64.60587 
C 104.819796 63.202811 109.0908 61.297825 109.0908 59.3136 
" clip-path="url(#p790e46c93a)" style="fill: none; stroke: #000000; stroke-width: 2.2; stroke-linejoin: miter"/>
   </g>
   <g id="patch_5">
    <path d="M 28.0692 74.8368 
C 28.0692 76.821025 32.340204 78.726011 39.934539 80.12907 
C 47.528874 81.532129 57.839988 82.3212 68.58 82.3212 
C 79.320012 82.3212 89.631126 81.532129 97.225461 80.12907 
C 104.819796 78.726011 109.0908 76.821025 109.0908 74.8368 
" clip-path="url(#p790e46c93a)" style="fill: none; stroke: #000000; stroke-width: 2.2; stroke-linejoin: miter"/>
   </g>
   <g id="line2d_1">
    <path d="M 28.0692 74.8368 
L 28.0692 28.2672 
" clip-path="url(#p790e46c93a)" style="fill: none; stroke: #000000; stroke-width: 2.2; stroke-linecap: square"/>
   </g>
   <g id="line2d_2">
    <path d="M 109.0908 74.8368 
L 109.0908 28.2672 
" clip-path="url(#p790e46c93a)" style="fill: none; stroke: #000000; stroke-width: 2.2; stroke-linecap: square"/>
   </g>
  </g>
 </g>
 <defs>
  <clipPath id="p790e46c93a">
   <rect x="7.2" y="7.2" width="122.76" height="88.704"/>
  </clipPath>
 </defs>
</svg>
